#!OML:ASF H:\Terrain\Patient Classification 1\Walking\steve\steve.ASF
:FULLY-SPECIFIED
:DEGREES
170
root 9.27228 16.3282 0.888271 5.49125 -6.20847 3.16622
lowerback -0.340428 2.6536 -4.38093
upperback -3.23605 3.44866 -1.06894
thorax -3.33817 1.82665 1.25157
lowerneck -10.4241 -0.849187 -4.78925
upperneck 11.3218 -0.654036 2.02552
head 5.13976 -0.388502 1.36314
rclavicle -7.35581e-015 -5.96354e-015
rhumerus -38.5706 -6.77379 -85.8341
rradius 33.2366
rwrist -13.6987
rhand -18.5395 -39.0548
rfingers 7.12502
rthumb 7.74962 -68.8927
lclavicle -7.35581e-015 -5.96354e-015
lhumerus -32.7785 16.8846 77.8712
lradius 20.093
lwrist 2.66136
lhand -22.1689 -11.5832
lfingers 7.12502
lthumb 4.24569 18.3542
rfemur -30.4609 2.64641 17.9279
rtibia 70.6481
rfoot -11.5037 1.06063
rtoes -10.4401
lfemur -16.5843 1.65149 -28.5463
ltibia 28.9935
lfoot -16.4535 -1.68897
ltoes -0.126359
171
root 9.27233 16.3096 1.11628 5.27627 -5.89345 4.02049
lowerback -0.546669 2.51683 -5.26865
upperback -3.09149 3.2674 -1.21765
thorax -3.10791 1.75135 1.61141
lowerneck -10.507 -0.81431 -4.7966
upperneck 11.5451 -0.614587 2.11668
head 5.22187 -0.365045 1.39654
rclavicle 2.55485e-014 1.56046e-014
rhumerus -39.7616 -7.45386 -85.3936
rradius 31.8302
rwrist -13.1562
rhand -18.2274 -39.854
rfingers 7.12502
rthumb 8.05088 -69.6807
lclavicle 2.55485e-014 1.56046e-014
lhumerus -30.878 14.5174 79.7485
lradius 21.4689
lwrist 6.32323
lhand -22.4788 -11.5852
lfingers 7.12502
lthumb 3.94637 18.358
rfemur -31.4545 2.30097 17.0966
rtibia 69.576
rfoot -13.1606 1.29683
rtoes -12.0865
lfemur -15.1987 1.48052 -29.5522
ltibia 28.4289
lfoot -17.2468 -1.85127
ltoes -0.501776
172
root 9.28533 16.2792 1.34465 5.09765 -5.61552 4.29157
lowerback -0.521331 2.40594 -5.48523
upperback -3.05328 3.11807 -1.15758
thorax -3.08865 1.68238 1.79781
lowerneck -10.3433 -0.762257 -4.79357
upperneck 11.5845 -0.548418 2.08105
head 5.20415 -0.336122 1.39013
rclavicle 4.4175e-014 -1.44057e-014
rhumerus -41.2524 -7.92601 -84.7664
rradius 30.7471
rwrist -12.5644
rhand -18.5437 -39.8236
rfingers 7.12502
rthumb 7.74563 -69.6618
lclavicle 4.4175e-014 -1.44057e-014
lhumerus -29.3109 12.6825 81.2555
lradius 22.8852
lwrist 9.21166
lhand -22.7876 -11.7493
lfingers 7.12502
lthumb 3.6482 18.1992
rfemur -32.3507 2.10357 16.9364
rtibia 68.2936
rfoot -14.4006 1.14821
rtoes -14.7949
lfemur -13.7049 1.85369 -30.0225
ltibia 27.822
lfoot -17.8768 -2.03813
ltoes -2.34368
173
root 9.29441 16.2813 1.57492 4.90886 -5.17511 4.77452
lowerback -0.435093 2.22773 -5.92139
upperback -3.01291 2.87002 -1.167
thorax -3.1011 1.56932 2.03507
lowerneck -10.1267 -0.750721 -4.74488
upperneck 11.5415 -0.530772 1.92693
head 5.15347 -0.336375 1.33528
rclavicle 1.66117e-014 2.26615e-014
rhumerus -42.5537 -8.76495 -83.94
rradius 29.4007
rwrist -11.5264
rhand -19.1335 -40.513
rfingers 7.12502
rthumb 7.17625 -70.3713
lclavicle 1.66117e-014 2.26615e-014
lhumerus -27.8736 11.101 82.4499
lradius 24.5246
lwrist 11.593
lhand -22.9413 -11.6422
lfingers 7.12502
lthumb 3.49983 18.3088
rfemur -33.3036 1.81888 16.4945
rtibia 66.7552
rfoot -15.2369 0.514984
rtoes -16.4484
lfemur -12.2076 2.20408 -30.6241
ltibia 27.1876
lfoot -18.2307 -2.65448
ltoes -0.9509
174
root 9.29073 16.3088 1.78848 4.84691 -4.72638 4.83701
lowerback -0.216325 2.07196 -6.06244
upperback -2.99152 2.64648 -1.10169
thorax -3.19486 1.46442 2.17964
lowerneck -10.168 -0.80872 -4.57337
upperneck 11.6626 -0.602924 1.69248
head 5.19959 -0.381146 1.22902
rclavicle -1.15295e-014 -1.44616e-014
rhumerus -43.7746 -9.94969 -83.0946
rradius 28.22
rwrist -10.28
rhand -19.3687 -41.8445
rfingers 7.12502
rthumb 6.94921 -71.7105
lclavicle -1.15295e-014 -1.44616e-014
lhumerus -26.2758 9.62382 83.3767
lradius 26.1073
lwrist 13.8417
lhand -22.6972 -11.1441
lfingers 7.12502
lthumb 3.7355 18.8029
rfemur -34.3077 1.79025 16.5537
rtibia 64.8505
rfoot -16.0647 -0.0797095
rtoes -15.1004
lfemur -11.1401 2.33019 -30.6139
ltibia 26.6463
lfoot -17.9174 -3.52678
ltoes 2.77826
175
root 9.27999 16.3132 1.98457 5.02453 -4.35393 4.48234
lowerback 0.131991 1.97791 -5.98294
upperback -3.16483 2.49617 -0.865325
thorax -3.5666 1.40399 2.36688
lowerneck -10.0037 -0.814773 -4.61762
upperneck 11.6983 -0.627458 1.80513
head 5.18409 -0.388388 1.26996
rclavicle -3.76153e-014 2.23633e-014
rhumerus -45.3706 -10.7794 -82.0873
rradius 27.2484
rwrist -9.57562
rhand -19.0648 -41.4001
rfingers 7.12502
rthumb 7.24264 -71.2562
lclavicle -3.76153e-014 2.23633e-014
lhumerus -24.7683 8.05853 84.2405
lradius 27.4572
lwrist 16.231
lhand -22.4754 -10.9279
lfingers 7.12502
lthumb 3.94974 19.0153
rfemur -35.5493 1.94029 17.1418
rtibia 62.7727
rfoot -16.8868 -0.556727
rtoes -14.2537
lfemur -10.3776 2.63372 -30.1972
ltibia 26.091
lfoot -17.4193 -4.17141
ltoes 3.33117
176
root 9.27431 16.2931 2.18612 5.15621 -3.95493 4.31952
lowerback 0.3779 1.85209 -6.02413
upperback -3.30659 2.30991 -0.673448
thorax -3.8479 1.3259 2.5838
lowerneck -9.83836 -0.815392 -4.63616
upperneck 11.6798 -0.634477 1.81177
head 5.15082 -0.392657 1.27469
rclavicle 1.42038e-014 -1.99779e-014
rhumerus -46.777 -11.3567 -81.1162
rradius 25.9328
rwrist -9.05364
rhand -18.752 -40.2414
rfingers 7.12502
rthumb 7.54451 -70.0868
lclavicle 1.42038e-014 -1.99779e-014
lhumerus -23.3537 6.56696 84.9656
lradius 28.7721
lwrist 18.2617
lhand -22.6076 -10.9868
lfingers 7.12502
lthumb 3.82206 18.9587
rfemur -36.6688 1.90592 17.5421
rtibia 60.5524
rfoot -17.5104 -1.45242
rtoes -15.8016
lfemur -9.36331 2.84003 -30.0588
ltibia 25.5473
lfoot -17.7313 -4.40847
ltoes 1.42852
